<svg version="1.0" xmlns="http://www.w3.org/2000/svg"
 width="1000.000000pt" height="613.000000pt" viewBox="0 0 1000.000000 613.000000"
 preserveAspectRatio="xMidYMid meet">
<metadata>
Created by potrace 1.15, written by Peter Selinger 2001-2017
</metadata>
<g transform="translate(0.000000,613.000000) scale(0.100000,-0.100000)"
fill="#000000" stroke="none">
<path d="M4625 5994 c-27 -3 -92 -11 -144 -20 -714 -118 -1313 -608 -1580
-1292 -46 -119 -94 -298 -116 -434 -21 -134 -21 -517 0 -648 115 -713 563
-1311 1216 -1624 196 -94 359 -145 589 -187 208 -38 587 -37 648 2 53 33 76
114 48 167 -33 64 -45 67 -301 68 -300 1 -472 30 -714 121 -274 102 -477 235
-696 457 -154 156 -250 285 -340 460 -84 164 -133 306 -180 526 -23 103 -32
442 -15 563 83 627 457 1148 1012 1411 188 89 326 130 546 160 142 20 259 20
409 1 261 -34 488 -113 691 -239 422 -262 699 -677 777 -1163 22 -136 20 -374
-5 -509 -34 -186 -67 -286 -156 -460 -222 -440 -634 -741 -1121 -819 -117 -19
-352 -19 -463 0 -267 45 -508 153 -699 314 -248 209 -407 470 -483 794 -18 77
-21 124 -22 282 0 176 2 198 28 300 83 327 247 580 494 763 144 107 278 171
461 220 87 23 114 25 291 26 167 0 207 -3 281 -22 444 -111 771 -429 884 -857
85 -322 -3 -739 -182 -869 l-48 -35 -5 432 -5 432 -32 67 c-33 72 -106 157
-163 193 -195 121 -519 111 -694 -23 l-39 -29 -47 33 c-186 134 -508 140 -696
13 -65 -44 -129 -123 -160 -196 l-29 -68 -3 -500 c-2 -275 0 -510 3 -523 9
-38 61 -62 133 -62 57 0 67 3 93 29 l29 29 0 464 c0 255 5 481 10 502 13 57
39 87 103 120 52 26 66 29 160 29 84 0 112 -4 148 -21 54 -25 70 -38 95 -77
18 -27 19 -57 24 -523 l5 -494 33 -29 c28 -25 40 -29 92 -29 71 0 101 12 123
50 15 25 17 78 17 499 0 521 -1 512 63 568 47 41 101 56 207 56 137 0 215 -37
251 -120 18 -42 19 -73 19 -489 0 -421 1 -447 19 -483 63 -123 213 -155 369
-79 47 23 91 57 148 113 67 67 88 97 132 185 90 182 127 373 119 613 -8 256
-64 445 -193 665 -303 512 -912 790 -1509 687 -423 -73 -793 -314 -1030 -670
-180 -270 -265 -555 -265 -890 0 -288 57 -519 185 -763 253 -477 686 -788
1235 -888 117 -21 428 -24 540 -5 499 84 933 357 1208 758 152 223 248 451
299 714 23 120 26 552 4 664 -88 455 -311 840 -651 1128 -272 230 -602 383
-956 442 -88 15 -402 27 -499 19z"/>
<path d="M6425 1435 c-136 -34 -205 -73 -300 -169 -80 -80 -132 -170 -165
-286 -31 -107 -39 -325 -15 -441 53 -267 193 -435 427 -513 68 -23 92 -26 223
-26 130 0 155 3 222 25 174 59 295 186 339 354 23 91 22 92 -92 89 -74 -2 -99
-7 -105 -18 -4 -8 -19 -40 -32 -70 -53 -120 -152 -181 -304 -188 -151 -7 -258
32 -341 123 -94 102 -134 224 -134 405 -1 219 66 378 195 463 75 50 154 71
262 70 101 -1 165 -18 231 -64 43 -29 100 -108 113 -156 l7 -28 107 -3 c118
-3 113 -7 96 68 -18 80 -61 153 -129 220 -117 117 -239 161 -439 159 -64 -1
-138 -7 -166 -14z"/>
<path d="M5 1418 c-3 -7 -4 -326 -3 -708 l3 -695 99 -3 c73 -2 102 1 108 10 4
7 8 233 8 503 l0 490 218 -328 c188 -283 220 -327 240 -325 18 2 70 74 242
333 l220 330 2 -505 3 -505 100 0 100 0 3 708 2 707 -100 0 -100 0 -236 -357
c-182 -275 -239 -354 -247 -343 -5 8 -111 168 -236 355 l-226 340 -98 3 c-72
2 -99 -1 -102 -10z"/>
<path d="M7345 1418 c-3 -7 -4 -326 -3 -708 l3 -695 105 0 105 0 5 325 c4 212
10 337 18 359 37 108 102 151 229 151 94 0 133 -20 167 -85 20 -38 21 -58 24
-384 2 -235 6 -349 14 -358 8 -10 36 -13 107 -11 l96 3 3 345 c3 368 -1 413
-45 507 -29 64 -103 132 -169 157 -28 10 -88 20 -139 23 -103 6 -185 -15 -262
-68 l-43 -30 0 83 c0 46 -3 154 -7 241 l-6 157 -99 0 c-70 0 -100 -4 -103 -12z"/>
<path d="M9704 1374 c-58 -21 -123 -80 -146 -133 -12 -28 -22 -79 -25 -128
l-6 -82 -86 -3 -86 -3 -3 -85 c-4 -104 2 -110 105 -110 l73 0 0 -397 c0 -219
4 -404 8 -411 6 -9 35 -12 108 -10 l99 3 3 408 2 407 104 0 c58 0 111 3 120 6
13 5 16 24 16 100 l0 94 -120 0 -120 0 0 64 c0 58 3 67 26 85 23 18 41 21 125
21 l99 0 0 95 0 95 -127 -1 c-85 0 -142 -6 -169 -15z"/>
<path d="M3600 1140 l0 -110 -89 0 c-104 0 -101 3 -101 -105 0 -90 6 -95 114
-95 l76 0 0 -310 c0 -347 1 -354 68 -423 66 -69 136 -89 287 -85 l110 3 0 95
0 95 -112 5 c-73 3 -117 10 -125 18 -10 10 -14 83 -16 307 l-3 295 115 0 c63
0 121 3 130 6 13 5 16 24 16 100 l0 94 -130 0 -130 0 0 110 0 110 -105 0 -105
0 0 -110z"/>
<path d="M1843 1035 c-151 -42 -238 -130 -250 -251 -5 -42 -3 -58 8 -65 17
-11 169 -12 185 -1 7 4 17 26 23 49 17 62 62 83 180 84 150 1 190 -30 199
-153 l5 -71 -24 6 c-13 4 -69 10 -124 13 -230 15 -401 -54 -471 -188 -27 -50
-31 -191 -9 -262 24 -76 78 -136 155 -170 59 -27 68 -28 188 -24 115 3 132 6
182 31 30 16 64 37 76 48 26 24 34 24 34 -1 0 -10 5 -31 12 -45 11 -25 14 -26
97 -23 l86 3 0 380 c0 350 -2 385 -19 440 -25 76 -106 161 -181 189 -69 25
-278 32 -352 11z m310 -576 c37 -10 37 -10 37 -62 -1 -133 -92 -207 -254 -207
-120 0 -183 53 -172 144 11 92 91 135 251 136 55 0 117 -5 138 -11z"/>
<path d="M2813 1039 c-108 -21 -196 -86 -233 -171 -19 -43 -22 -65 -18 -130
10 -169 99 -236 403 -303 137 -30 175 -60 175 -136 0 -73 -60 -109 -185 -109
-128 0 -195 44 -195 128 0 46 -17 53 -121 50 l-94 -3 1 -70 c3 -133 80 -232
218 -278 68 -23 290 -24 366 -1 153 45 240 165 227 315 -14 161 -97 232 -337
284 -196 43 -240 68 -240 137 0 53 13 74 54 88 51 17 189 14 225 -4 35 -19 61
-52 61 -81 0 -12 5 -26 12 -33 16 -16 180 -16 196 0 30 30 -3 148 -59 211 -40
46 -119 90 -190 106 -52 12 -206 12 -266 0z"/>
<path d="M4480 1036 c-74 -21 -120 -47 -182 -104 -103 -96 -152 -231 -151
-417 1 -229 91 -394 260 -477 65 -31 74 -33 207 -36 131 -4 143 -2 205 22 36
14 88 45 114 67 60 52 109 145 105 197 l-3 37 -80 3 c-90 3 -125 -3 -125 -21
0 -22 -62 -89 -96 -103 -41 -17 -143 -18 -197 -2 -61 18 -122 82 -141 147 -9
30 -16 61 -16 68 0 10 70 13 348 15 l347 3 3 102 c7 257 -116 442 -331 499
-63 17 -206 17 -267 0z m256 -209 c46 -24 81 -71 99 -129 28 -95 47 -88 -221
-88 l-236 0 7 43 c15 86 50 143 110 175 60 32 179 32 241 -1z"/>
<path d="M8717 1039 c-171 -40 -297 -186 -332 -386 -50 -278 49 -520 252 -616
67 -32 69 -32 223 -32 151 0 157 1 214 29 109 53 187 154 190 245 l1 46 -97 3
-97 3 -20 -38 c-23 -46 -56 -78 -94 -92 -42 -16 -162 -13 -205 5 -71 29 -125
100 -138 183 l-7 41 349 2 349 3 3 97 c7 259 -131 462 -346 507 -62 13 -190
13 -245 0z m248 -211 c60 -32 95 -89 110 -175 l7 -43 -237 0 -237 0 7 47 c21
143 120 212 275 192 25 -3 59 -12 75 -21z"/>
<path d="M5242 523 l3 -508 94 -3 c60 -2 98 1 107 9 11 9 14 68 14 320 0 284
2 312 20 362 37 98 90 127 233 127 126 0 129 3 125 110 l-3 85 -97 3 c-108 3
-196 -19 -255 -64 l-32 -25 -6 28 c-12 56 -16 58 -114 61 l-91 3 2 -508z"/>
</g>
</svg>